<svg id="Group_1" data-name="Group 1" xmlns="http://www.w3.org/2000/svg" xmlns:xlink="http://www.w3.org/1999/xlink" width="109.563" height="23.339" viewBox="0 0 109.563 23.339">
  <defs>
    <clipPath id="clip-path">
      <path id="Path_1" data-name="Path 1" d="M1050.373,870l-.01,19.571-2.194,3.552H1040Z" transform="translate(-1040 -870)" fill="none" clip-rule="evenodd"/>
    </clipPath>
    <clipPath id="clip-path-2">
      <rect id="Rectangle_4" data-name="Rectangle 4" width="395.326" height="1313.572" fill="none"/>
    </clipPath>
    <clipPath id="clip-path-3">
      <path id="Path_2" data-name="Path 2" d="M1127.809,910v12.365L1125,924.479V913.754Z" transform="translate(-1125 -910)" fill="none" clip-rule="evenodd"/>
    </clipPath>
    <clipPath id="clip-path-5">
      <path id="Path_3" data-name="Path 3" d="M1088,870l8,6.38v16.742h-8Z" transform="translate(-1088 -870)" fill="none" clip-rule="evenodd"/>
    </clipPath>
    <clipPath id="clip-path-6">
      <rect id="Rectangle_8" data-name="Rectangle 8" width="395.326" height="1313.572" transform="translate(0)" fill="none"/>
    </clipPath>
    <clipPath id="clip-path-7">
      <path id="Path_4" data-name="Path 4" d="M1138,910l8,6.323v8.155h-8Z" transform="translate(-1138 -910)" fill="none" clip-rule="evenodd"/>
    </clipPath>
    <clipPath id="clip-path-9">
      <path id="Path_5" data-name="Path 5" d="M1188,947l8,6.483-1.733-.028H1188Z" transform="translate(-1188 -947)" fill="none" clip-rule="evenodd"/>
    </clipPath>
    <clipPath id="clip-path-11">
      <path id="Path_6" data-name="Path 6" d="M1307.345,894.69a8.47,8.47,0,0,0,1.474-.154,7,7,0,0,0,1.443-.4l-.372-1.7a5.361,5.361,0,0,1-.869.247,4.225,4.225,0,0,1-.807.093,1.861,1.861,0,0,1-1.4-.509,1.923,1.923,0,0,1-.5-1.4V872h-2.11v19.577a3.06,3.06,0,0,0,.838,2.3A3.148,3.148,0,0,0,1307.345,894.69Zm-12.766-1.729a5.487,5.487,0,0,1-2.3-.494,5.739,5.739,0,0,1-1.882-1.374,6.817,6.817,0,0,1-1.27-2.037,6.622,6.622,0,0,1-.47-2.516,6.859,6.859,0,0,1,.47-2.547,6.756,6.756,0,0,1,1.286-2.084,6.061,6.061,0,0,1,1.882-1.4,5.243,5.243,0,0,1,2.289-.509,5.346,5.346,0,0,1,2.305.509,6.118,6.118,0,0,1,1.9,1.389,6.551,6.551,0,0,1,1.286,2.068,7,7,0,0,1,0,5.047,6.594,6.594,0,0,1-1.286,2.053,6.116,6.116,0,0,1-1.9,1.389A5.345,5.345,0,0,1,1294.579,892.962Zm.108,1.945a7.685,7.685,0,0,0,3.233-.671,7.858,7.858,0,0,0,2.536-1.826,8.293,8.293,0,0,0,1.655-2.684,8.885,8.885,0,0,0,.588-3.215,8.766,8.766,0,0,0-.6-3.246,8.522,8.522,0,0,0-1.67-2.684,8.064,8.064,0,0,0-2.536-1.842,7.467,7.467,0,0,0-3.2-.687,7.362,7.362,0,0,0-3.186.687,8.117,8.117,0,0,0-2.521,1.842,8.519,8.519,0,0,0-1.67,2.684,8.764,8.764,0,0,0-.6,3.246,8.885,8.885,0,0,0,.588,3.215,8.3,8.3,0,0,0,1.655,2.684,7.9,7.9,0,0,0,2.521,1.826A7.58,7.58,0,0,0,1294.688,894.907Zm-16.532-1.945a5.486,5.486,0,0,1-2.3-.494,5.739,5.739,0,0,1-1.882-1.374,6.814,6.814,0,0,1-1.27-2.037,6.622,6.622,0,0,1-.47-2.516,6.859,6.859,0,0,1,.47-2.547,6.753,6.753,0,0,1,1.286-2.084,6.06,6.06,0,0,1,1.882-1.4,5.242,5.242,0,0,1,2.289-.509,5.345,5.345,0,0,1,2.3.509,6.119,6.119,0,0,1,1.9,1.389,6.562,6.562,0,0,1,1.286,2.068,7,7,0,0,1,0,5.047,6.606,6.606,0,0,1-1.286,2.053,6.118,6.118,0,0,1-1.9,1.389A5.344,5.344,0,0,1,1278.156,892.962Zm.108,1.945a7.686,7.686,0,0,0,3.233-.671,7.859,7.859,0,0,0,2.536-1.826,8.3,8.3,0,0,0,1.655-2.684,8.885,8.885,0,0,0,.588-3.215,8.769,8.769,0,0,0-.6-3.246,8.52,8.52,0,0,0-1.67-2.684,8.062,8.062,0,0,0-2.536-1.842,7.466,7.466,0,0,0-3.2-.687,7.363,7.363,0,0,0-3.186.687,8.116,8.116,0,0,0-2.521,1.842,8.517,8.517,0,0,0-1.67,2.684,8.766,8.766,0,0,0-.6,3.246,8.888,8.888,0,0,0,.588,3.215,8.3,8.3,0,0,0,1.655,2.684,7.9,7.9,0,0,0,2.521,1.826A7.58,7.58,0,0,0,1278.264,894.907Zm-31.159-.216v-9.755a6.974,6.974,0,0,1,2.043-3.3,4.78,4.78,0,0,1,3.25-1.254,2.989,2.989,0,0,1,2.662,1.284,7.572,7.572,0,0,1,.867,4.128v8.9h2.1v-9.724a6.957,6.957,0,0,1,.8-1.85,6.514,6.514,0,0,1,1.222-1.453,5.39,5.39,0,0,1,1.516-.948,4.567,4.567,0,0,1,1.749-.336,3.013,3.013,0,0,1,2.662,1.315,7.382,7.382,0,0,1,.9,4.1v8.9h2.1v-9.327a13.993,13.993,0,0,0-.263-2.829,6.471,6.471,0,0,0-.836-2.171,3.885,3.885,0,0,0-1.517-1.391,4.966,4.966,0,0,0-2.306-.489q-3.962,0-6.221,4.1a4.906,4.906,0,0,0-1.5-2.966,4.616,4.616,0,0,0-3.265-1.131,6.494,6.494,0,0,0-3.559,1.024,7.564,7.564,0,0,0-2.6,2.859v-3.608H1245V894.69Z" transform="translate(-1245 -872)" fill="#fff"/>
    </clipPath>
    <clipPath id="clip-path-12">
      <rect id="Rectangle_14" data-name="Rectangle 14" width="395.326" height="1313.572" transform="translate(0)" fill="#fff"/>
    </clipPath>
  </defs>
  <g id="Group_25" data-name="Group 25" transform="translate(0 0)">
    <g id="Group_8" data-name="Group 8">
      <g id="Group_7" data-name="Group 7" clip-path="url(#clip-path)">
        <g id="Group_6" data-name="Group 6" transform="translate(-224.781 -188.101)">
          <g id="Group_5" data-name="Group 5" transform="translate(0 0)" clip-path="url(#clip-path-2)">
            <rect id="Rectangle_3" data-name="Rectangle 3" width="12.854" height="26.334" transform="translate(223.213 186.533)" fill="#405cd2"/>
          </g>
        </g>
      </g>
    </g>
    <g id="Group_12" data-name="Group 12" transform="translate(18.368 8.644)">
      <g id="Group_11" data-name="Group 11" clip-path="url(#clip-path-3)">
        <g id="Group_10" data-name="Group 10" transform="translate(-243.149 -196.745)">
          <g id="Group_9" data-name="Group 9" transform="translate(0 0)" clip-path="url(#clip-path-2)">
            <rect id="Rectangle_5" data-name="Rectangle 5" width="5.33" height="16.616" transform="translate(241.71 196.252)" fill="#405cd2"/>
          </g>
        </g>
      </g>
    </g>
    <g id="Group_16" data-name="Group 16" transform="translate(10.373)">
      <g id="Group_15" data-name="Group 15" clip-path="url(#clip-path-5)">
        <g id="Group_14" data-name="Group 14" transform="translate(-235.153 -188.101)">
          <g id="Group_13" data-name="Group 13" transform="translate(0 0)" clip-path="url(#clip-path-6)">
            <rect id="Rectangle_7" data-name="Rectangle 7" width="10.346" height="26.334" transform="translate(234.499 186.533)" fill="#40d2ac"/>
          </g>
        </g>
      </g>
    </g>
    <g id="Group_20" data-name="Group 20" transform="translate(21.178 8.644)">
      <g id="Group_19" data-name="Group 19" clip-path="url(#clip-path-7)">
        <g id="Group_18" data-name="Group 18" transform="translate(-245.958 -196.745)">
          <g id="Group_17" data-name="Group 17" transform="translate(0 0)" clip-path="url(#clip-path-2)">
            <rect id="Rectangle_9" data-name="Rectangle 9" width="9.405" height="16.616" transform="translate(244.845 196.252)" fill="#40d2ac"/>
          </g>
        </g>
      </g>
    </g>
    <g id="Group_24" data-name="Group 24" transform="translate(31.983 16.64)">
      <g id="Group_23" data-name="Group 23" clip-path="url(#clip-path-9)">
        <g id="Group_22" data-name="Group 22" transform="translate(-256.763 -204.741)">
          <g id="Group_21" data-name="Group 21" transform="translate(0 0)" clip-path="url(#clip-path-2)">
            <rect id="Rectangle_11" data-name="Rectangle 11" width="10.346" height="8.778" transform="translate(255.19 204.09)" fill="#40d2ac"/>
          </g>
        </g>
      </g>
    </g>
  </g>
  <g id="Group_29" data-name="Group 29" transform="translate(44.3 0.432)">
    <g id="Group_28" data-name="Group 28" transform="translate(0 0)" clip-path="url(#clip-path-11)">
      <g id="Group_27" data-name="Group 27" transform="translate(-269.081 -188.533)">
        <g id="Group_26" data-name="Group 26" transform="translate(0 0)" clip-path="url(#clip-path-12)">
          <rect id="Rectangle_13" data-name="Rectangle 13" width="67.089" height="25.707" transform="translate(268.044 187.161)" fill="#fff"/>
        </g>
      </g>
    </g>
  </g>
</svg>
